<mxfile host="app.diagrams.net" modified="2022-03-07T14:20:02.436Z" agent="5.0 (Windows NT 10.0; Win64; x64) AppleWebKit/537.36 (KHTML, like Gecko) Chrome/99.0.4844.51 Safari/537.36 Edg/99.0.1150.30" etag="rYai7vqZ7_vKdNqkyzlh" version="16.6.6" type="github">
  <diagram id="C5RBs43oDa-KdzZeNtuy" name="Page-1">
    <mxGraphModel dx="1422" dy="794" grid="1" gridSize="10" guides="1" tooltips="1" connect="1" arrows="1" fold="1" page="1" pageScale="1" pageWidth="827" pageHeight="1169" math="0" shadow="0">
      <root>
        <mxCell id="WIyWlLk6GJQsqaUBKTNV-0" />
        <mxCell id="WIyWlLk6GJQsqaUBKTNV-1" parent="WIyWlLk6GJQsqaUBKTNV-0" />
        <mxCell id="wCRH-mLkfmmBmy6U8lq6-15" style="edgeStyle=orthogonalEdgeStyle;rounded=0;orthogonalLoop=1;jettySize=auto;html=1;exitX=0;exitY=1;exitDx=0;exitDy=0;entryX=0.47;entryY=0;entryDx=0;entryDy=0;entryPerimeter=0;" edge="1" parent="WIyWlLk6GJQsqaUBKTNV-1" source="WIyWlLk6GJQsqaUBKTNV-3" target="WIyWlLk6GJQsqaUBKTNV-7">
          <mxGeometry relative="1" as="geometry">
            <Array as="points">
              <mxPoint x="174" y="500" />
            </Array>
          </mxGeometry>
        </mxCell>
        <mxCell id="wCRH-mLkfmmBmy6U8lq6-16" value="" style="edgeStyle=orthogonalEdgeStyle;rounded=0;orthogonalLoop=1;jettySize=auto;html=1;" edge="1" parent="WIyWlLk6GJQsqaUBKTNV-1" source="WIyWlLk6GJQsqaUBKTNV-3" target="wCRH-mLkfmmBmy6U8lq6-13">
          <mxGeometry relative="1" as="geometry" />
        </mxCell>
        <mxCell id="wCRH-mLkfmmBmy6U8lq6-17" style="edgeStyle=orthogonalEdgeStyle;rounded=0;orthogonalLoop=1;jettySize=auto;html=1;exitX=1;exitY=1;exitDx=0;exitDy=0;entryX=0.5;entryY=0;entryDx=0;entryDy=0;" edge="1" parent="WIyWlLk6GJQsqaUBKTNV-1" source="WIyWlLk6GJQsqaUBKTNV-3" target="wCRH-mLkfmmBmy6U8lq6-14">
          <mxGeometry relative="1" as="geometry">
            <Array as="points">
              <mxPoint x="548" y="500" />
              <mxPoint x="548" y="520" />
            </Array>
          </mxGeometry>
        </mxCell>
        <mxCell id="wCRH-mLkfmmBmy6U8lq6-19" style="edgeStyle=orthogonalEdgeStyle;rounded=0;orthogonalLoop=1;jettySize=auto;html=1;exitX=1;exitY=1;exitDx=0;exitDy=0;entryX=0.5;entryY=0;entryDx=0;entryDy=0;" edge="1" parent="WIyWlLk6GJQsqaUBKTNV-1" source="WIyWlLk6GJQsqaUBKTNV-3" target="wCRH-mLkfmmBmy6U8lq6-18">
          <mxGeometry relative="1" as="geometry">
            <Array as="points">
              <mxPoint x="650" y="500" />
            </Array>
          </mxGeometry>
        </mxCell>
        <mxCell id="WIyWlLk6GJQsqaUBKTNV-3" value="Filter images to those within a 50m buffer from each major street&amp;nbsp;" style="rounded=1;whiteSpace=wrap;html=1;fontSize=12;glass=0;strokeWidth=1;shadow=0;" parent="WIyWlLk6GJQsqaUBKTNV-1" vertex="1">
          <mxGeometry x="307.5" y="440" width="185" height="60" as="geometry" />
        </mxCell>
        <mxCell id="wCRH-mLkfmmBmy6U8lq6-11" value="" style="edgeStyle=orthogonalEdgeStyle;rounded=0;orthogonalLoop=1;jettySize=auto;html=1;" edge="1" parent="WIyWlLk6GJQsqaUBKTNV-1" source="WIyWlLk6GJQsqaUBKTNV-6" target="WIyWlLk6GJQsqaUBKTNV-3">
          <mxGeometry relative="1" as="geometry" />
        </mxCell>
        <mxCell id="WIyWlLk6GJQsqaUBKTNV-6" value="Data Processing" style="rhombus;whiteSpace=wrap;html=1;shadow=0;fontFamily=Helvetica;fontSize=12;align=center;strokeWidth=1;spacing=6;spacingTop=-4;fillColor=#b1ddf0;strokeColor=#10739e;" parent="WIyWlLk6GJQsqaUBKTNV-1" vertex="1">
          <mxGeometry x="350" y="330" width="100" height="80" as="geometry" />
        </mxCell>
        <mxCell id="wCRH-mLkfmmBmy6U8lq6-22" style="edgeStyle=orthogonalEdgeStyle;rounded=0;orthogonalLoop=1;jettySize=auto;html=1;exitX=1;exitY=0.5;exitDx=0;exitDy=0;entryX=0;entryY=0.5;entryDx=0;entryDy=0;" edge="1" parent="WIyWlLk6GJQsqaUBKTNV-1" source="WIyWlLk6GJQsqaUBKTNV-7" target="wCRH-mLkfmmBmy6U8lq6-13">
          <mxGeometry relative="1" as="geometry" />
        </mxCell>
        <mxCell id="WIyWlLk6GJQsqaUBKTNV-7" value="Evaluation of participation inequality and remove as appropriate&amp;nbsp;" style="rounded=1;whiteSpace=wrap;html=1;fontSize=12;glass=0;strokeWidth=1;shadow=0;" parent="WIyWlLk6GJQsqaUBKTNV-1" vertex="1">
          <mxGeometry x="80" y="530" width="200" height="40" as="geometry" />
        </mxCell>
        <mxCell id="wCRH-mLkfmmBmy6U8lq6-32" style="edgeStyle=orthogonalEdgeStyle;rounded=0;orthogonalLoop=1;jettySize=auto;html=1;exitX=1;exitY=0.5;exitDx=0;exitDy=0;entryX=0.5;entryY=0;entryDx=0;entryDy=0;" edge="1" parent="WIyWlLk6GJQsqaUBKTNV-1" source="WIyWlLk6GJQsqaUBKTNV-11" target="wCRH-mLkfmmBmy6U8lq6-29">
          <mxGeometry relative="1" as="geometry" />
        </mxCell>
        <mxCell id="WIyWlLk6GJQsqaUBKTNV-11" value="Transformation of street and its tags to vectors&amp;nbsp;" style="rounded=1;whiteSpace=wrap;html=1;fontSize=12;glass=0;strokeWidth=1;shadow=0;" parent="WIyWlLk6GJQsqaUBKTNV-1" vertex="1">
          <mxGeometry x="220" y="820" width="120" height="40" as="geometry" />
        </mxCell>
        <mxCell id="wCRH-mLkfmmBmy6U8lq6-30" value="" style="edgeStyle=orthogonalEdgeStyle;rounded=0;orthogonalLoop=1;jettySize=auto;html=1;" edge="1" parent="WIyWlLk6GJQsqaUBKTNV-1" source="WIyWlLk6GJQsqaUBKTNV-12" target="wCRH-mLkfmmBmy6U8lq6-29">
          <mxGeometry relative="1" as="geometry">
            <Array as="points">
              <mxPoint x="405" y="840" />
            </Array>
          </mxGeometry>
        </mxCell>
        <mxCell id="WIyWlLk6GJQsqaUBKTNV-12" value="Normalisation via TF-IDF" style="rounded=1;whiteSpace=wrap;html=1;fontSize=12;glass=0;strokeWidth=1;shadow=0;" parent="WIyWlLk6GJQsqaUBKTNV-1" vertex="1">
          <mxGeometry x="460" y="820" width="120" height="40" as="geometry" />
        </mxCell>
        <mxCell id="wCRH-mLkfmmBmy6U8lq6-2" value="" style="edgeStyle=orthogonalEdgeStyle;rounded=0;orthogonalLoop=1;jettySize=auto;html=1;" edge="1" parent="WIyWlLk6GJQsqaUBKTNV-1" source="wCRH-mLkfmmBmy6U8lq6-0" target="wCRH-mLkfmmBmy6U8lq6-1">
          <mxGeometry relative="1" as="geometry" />
        </mxCell>
        <mxCell id="wCRH-mLkfmmBmy6U8lq6-0" value="Flickr API" style="ellipse;shape=cloud;whiteSpace=wrap;html=1;" vertex="1" parent="WIyWlLk6GJQsqaUBKTNV-1">
          <mxGeometry x="340" y="150" width="120" height="70" as="geometry" />
        </mxCell>
        <mxCell id="wCRH-mLkfmmBmy6U8lq6-10" value="" style="edgeStyle=orthogonalEdgeStyle;rounded=0;orthogonalLoop=1;jettySize=auto;html=1;" edge="1" parent="WIyWlLk6GJQsqaUBKTNV-1" source="wCRH-mLkfmmBmy6U8lq6-1" target="WIyWlLk6GJQsqaUBKTNV-6">
          <mxGeometry relative="1" as="geometry" />
        </mxCell>
        <mxCell id="wCRH-mLkfmmBmy6U8lq6-1" value="Downloaded images&lt;br&gt;(JSON)" style="rounded=1;whiteSpace=wrap;html=1;" vertex="1" parent="WIyWlLk6GJQsqaUBKTNV-1">
          <mxGeometry x="340" y="250" width="120" height="60" as="geometry" />
        </mxCell>
        <mxCell id="wCRH-mLkfmmBmy6U8lq6-6" value="" style="edgeStyle=orthogonalEdgeStyle;rounded=0;orthogonalLoop=1;jettySize=auto;html=1;" edge="1" parent="WIyWlLk6GJQsqaUBKTNV-1" source="wCRH-mLkfmmBmy6U8lq6-5" target="wCRH-mLkfmmBmy6U8lq6-0">
          <mxGeometry relative="1" as="geometry" />
        </mxCell>
        <mxCell id="wCRH-mLkfmmBmy6U8lq6-9" value="" style="edgeStyle=orthogonalEdgeStyle;rounded=0;orthogonalLoop=1;jettySize=auto;html=1;" edge="1" parent="WIyWlLk6GJQsqaUBKTNV-1" source="wCRH-mLkfmmBmy6U8lq6-5" target="wCRH-mLkfmmBmy6U8lq6-8">
          <mxGeometry relative="1" as="geometry" />
        </mxCell>
        <mxCell id="wCRH-mLkfmmBmy6U8lq6-5" value="Data collection" style="rhombus;whiteSpace=wrap;html=1;shadow=0;fontFamily=Helvetica;fontSize=12;align=center;strokeWidth=1;spacing=6;spacingTop=-4;fillColor=#b1ddf0;strokeColor=#10739e;" vertex="1" parent="WIyWlLk6GJQsqaUBKTNV-1">
          <mxGeometry x="350" y="50" width="100" height="70" as="geometry" />
        </mxCell>
        <mxCell id="wCRH-mLkfmmBmy6U8lq6-8" value="OS&lt;br&gt;Road Network" style="ellipse;shape=cloud;whiteSpace=wrap;html=1;" vertex="1" parent="WIyWlLk6GJQsqaUBKTNV-1">
          <mxGeometry x="470" y="50" width="120" height="70" as="geometry" />
        </mxCell>
        <mxCell id="wCRH-mLkfmmBmy6U8lq6-21" style="edgeStyle=orthogonalEdgeStyle;rounded=0;orthogonalLoop=1;jettySize=auto;html=1;exitX=0.5;exitY=1;exitDx=0;exitDy=0;entryX=0.5;entryY=0;entryDx=0;entryDy=0;entryPerimeter=0;" edge="1" parent="WIyWlLk6GJQsqaUBKTNV-1" source="wCRH-mLkfmmBmy6U8lq6-13" target="wCRH-mLkfmmBmy6U8lq6-20">
          <mxGeometry relative="1" as="geometry" />
        </mxCell>
        <mxCell id="wCRH-mLkfmmBmy6U8lq6-23" value="" style="edgeStyle=orthogonalEdgeStyle;rounded=0;orthogonalLoop=1;jettySize=auto;html=1;" edge="1" parent="WIyWlLk6GJQsqaUBKTNV-1" source="wCRH-mLkfmmBmy6U8lq6-13" target="wCRH-mLkfmmBmy6U8lq6-14">
          <mxGeometry relative="1" as="geometry" />
        </mxCell>
        <mxCell id="wCRH-mLkfmmBmy6U8lq6-13" value="Removal of duplicates, images with no tags etc." style="rounded=1;whiteSpace=wrap;html=1;fontSize=12;glass=0;strokeWidth=1;shadow=0;" vertex="1" parent="WIyWlLk6GJQsqaUBKTNV-1">
          <mxGeometry x="300" y="530" width="130" height="40" as="geometry" />
        </mxCell>
        <mxCell id="wCRH-mLkfmmBmy6U8lq6-24" value="" style="edgeStyle=orthogonalEdgeStyle;rounded=0;orthogonalLoop=1;jettySize=auto;html=1;" edge="1" parent="WIyWlLk6GJQsqaUBKTNV-1" source="wCRH-mLkfmmBmy6U8lq6-14" target="wCRH-mLkfmmBmy6U8lq6-18">
          <mxGeometry relative="1" as="geometry" />
        </mxCell>
        <mxCell id="wCRH-mLkfmmBmy6U8lq6-14" value="Topic modelling&amp;nbsp;" style="rounded=1;whiteSpace=wrap;html=1;fontSize=12;glass=0;strokeWidth=1;shadow=0;" vertex="1" parent="WIyWlLk6GJQsqaUBKTNV-1">
          <mxGeometry x="450" y="530" width="107.5" height="40" as="geometry" />
        </mxCell>
        <mxCell id="wCRH-mLkfmmBmy6U8lq6-18" value="Removal of place names" style="rounded=1;whiteSpace=wrap;html=1;fontSize=12;glass=0;strokeWidth=1;shadow=0;" vertex="1" parent="WIyWlLk6GJQsqaUBKTNV-1">
          <mxGeometry x="590" y="530" width="120" height="40" as="geometry" />
        </mxCell>
        <mxCell id="wCRH-mLkfmmBmy6U8lq6-26" value="" style="edgeStyle=orthogonalEdgeStyle;rounded=0;orthogonalLoop=1;jettySize=auto;html=1;" edge="1" parent="WIyWlLk6GJQsqaUBKTNV-1" source="wCRH-mLkfmmBmy6U8lq6-20" target="wCRH-mLkfmmBmy6U8lq6-25">
          <mxGeometry relative="1" as="geometry" />
        </mxCell>
        <mxCell id="wCRH-mLkfmmBmy6U8lq6-20" value="Filtered data" style="shape=cylinder3;whiteSpace=wrap;html=1;boundedLbl=1;backgroundOutline=1;size=15;shadow=0;fillColor=default;gradientColor=none;" vertex="1" parent="WIyWlLk6GJQsqaUBKTNV-1">
          <mxGeometry x="375" y="610" width="60" height="80" as="geometry" />
        </mxCell>
        <mxCell id="wCRH-mLkfmmBmy6U8lq6-27" value="" style="edgeStyle=orthogonalEdgeStyle;rounded=0;orthogonalLoop=1;jettySize=auto;html=1;" edge="1" parent="WIyWlLk6GJQsqaUBKTNV-1" source="wCRH-mLkfmmBmy6U8lq6-25" target="WIyWlLk6GJQsqaUBKTNV-11">
          <mxGeometry relative="1" as="geometry" />
        </mxCell>
        <mxCell id="wCRH-mLkfmmBmy6U8lq6-31" style="edgeStyle=orthogonalEdgeStyle;rounded=0;orthogonalLoop=1;jettySize=auto;html=1;exitX=1;exitY=0.5;exitDx=0;exitDy=0;entryX=0.5;entryY=0;entryDx=0;entryDy=0;" edge="1" parent="WIyWlLk6GJQsqaUBKTNV-1" source="wCRH-mLkfmmBmy6U8lq6-25" target="WIyWlLk6GJQsqaUBKTNV-12">
          <mxGeometry relative="1" as="geometry" />
        </mxCell>
        <mxCell id="wCRH-mLkfmmBmy6U8lq6-25" value="Data Analysis" style="rhombus;whiteSpace=wrap;html=1;shadow=0;fontFamily=Helvetica;fontSize=12;align=center;strokeWidth=1;spacing=6;spacingTop=-4;fillColor=#b1ddf0;strokeColor=#10739e;" vertex="1" parent="WIyWlLk6GJQsqaUBKTNV-1">
          <mxGeometry x="355" y="720" width="100" height="80" as="geometry" />
        </mxCell>
        <mxCell id="wCRH-mLkfmmBmy6U8lq6-33" style="edgeStyle=orthogonalEdgeStyle;rounded=0;orthogonalLoop=1;jettySize=auto;html=1;exitX=0.5;exitY=1;exitDx=0;exitDy=0;entryX=0.5;entryY=0;entryDx=0;entryDy=0;" edge="1" parent="WIyWlLk6GJQsqaUBKTNV-1" source="wCRH-mLkfmmBmy6U8lq6-29" target="wCRH-mLkfmmBmy6U8lq6-35">
          <mxGeometry relative="1" as="geometry">
            <mxPoint x="330" y="970" as="targetPoint" />
          </mxGeometry>
        </mxCell>
        <mxCell id="wCRH-mLkfmmBmy6U8lq6-37" style="edgeStyle=orthogonalEdgeStyle;rounded=0;orthogonalLoop=1;jettySize=auto;html=1;exitX=0.5;exitY=1;exitDx=0;exitDy=0;entryX=0.642;entryY=-0.05;entryDx=0;entryDy=0;entryPerimeter=0;" edge="1" parent="WIyWlLk6GJQsqaUBKTNV-1" source="wCRH-mLkfmmBmy6U8lq6-29" target="wCRH-mLkfmmBmy6U8lq6-36">
          <mxGeometry relative="1" as="geometry">
            <Array as="points">
              <mxPoint x="405" y="960" />
              <mxPoint x="491" y="960" />
            </Array>
          </mxGeometry>
        </mxCell>
        <mxCell id="wCRH-mLkfmmBmy6U8lq6-29" value="Semantic similarity between adjacent vectors&amp;nbsp;" style="rounded=1;whiteSpace=wrap;html=1;fontSize=12;glass=0;strokeWidth=1;shadow=0;" vertex="1" parent="WIyWlLk6GJQsqaUBKTNV-1">
          <mxGeometry x="345" y="900" width="120" height="40" as="geometry" />
        </mxCell>
        <mxCell id="wCRH-mLkfmmBmy6U8lq6-35" value="Overview Analysis" style="shape=parallelogram;perimeter=parallelogramPerimeter;whiteSpace=wrap;html=1;fixedSize=1;shadow=0;fillColor=default;gradientColor=none;" vertex="1" parent="WIyWlLk6GJQsqaUBKTNV-1">
          <mxGeometry x="260" y="980" width="120" height="60" as="geometry" />
        </mxCell>
        <mxCell id="wCRH-mLkfmmBmy6U8lq6-36" value="Compare with Qualitative Mental Maps" style="shape=parallelogram;perimeter=parallelogramPerimeter;whiteSpace=wrap;html=1;fixedSize=1;shadow=0;fillColor=default;gradientColor=none;" vertex="1" parent="WIyWlLk6GJQsqaUBKTNV-1">
          <mxGeometry x="414" y="980" width="120" height="60" as="geometry" />
        </mxCell>
      </root>
    </mxGraphModel>
  </diagram>
</mxfile>
